<svg width="48" height="48" viewBox="0 0 48 48" fill="none" xmlns="http://www.w3.org/2000/svg">
<g clip-path="url(#clip0_84_205)">
<path d="M24 48C37.2548 48 48 37.2548 48 24C48 10.7452 37.2548 0 24 0C10.7452 0 0 10.7452 0 24C0 37.2548 10.7452 48 24 48Z" fill="#B7A4EE"/>
<path d="M23.9426 36C23.3684 36 22.9091 35.5385 22.9091 34.9615C22.9091 34.5 22.6794 25.0385 13.0335 25.0385C12.4593 25.0385 12 24.5769 12 24C12 23.4231 12.4593 22.9615 13.0335 22.9615C13.4928 22.9615 23.0239 22.6154 23.0239 13.0385C23.0239 12.4615 23.4833 12 24.0574 12C24.6316 12 25.0909 12.4615 25.0909 13.0385C25.0909 13.5 25.4354 22.9615 34.9665 22.9615C35.5407 22.9615 36 23.4231 36 24C36 24.5769 35.5407 25.0385 34.9665 25.0385C34.5072 25.0385 25.0909 25.1538 25.0909 34.9615C24.9761 35.5385 24.5167 36 23.9426 36ZM17.9713 23.8846C21.1866 25.1538 22.9091 27.6923 23.8278 30C25.0909 26.7692 27.6172 25.0385 29.9139 24.1154C26.8134 22.8462 25.0909 20.3077 24.1722 18C22.7943 21.2308 20.2679 22.9615 17.9713 23.8846Z" fill="#7754BF"/>
</g>
<defs>
<clipPath id="clip0_84_205">
<rect width="48" height="48" fill="white"/>
</clipPath>
</defs>
</svg>
