<svg width="65" height="73" viewBox="0 0 65 73" fill="none" xmlns="http://www.w3.org/2000/svg">
<g clip-path="url(#clip0_21_77)">
<path d="M39.2299 9.6784C39.2299 14.716 32.1081 36.658 32.1081 36.658C32.1081 36.658 24.9863 14.716 24.9863 9.6784C24.9863 4.64091 28.1748 0.558105 32.1081 0.558105C36.0416 0.558105 39.2299 4.64091 39.2299 9.6784Z" fill="#F4D742"/>
<path d="M12.2439 17.0194C16.6183 19.5381 32.1098 36.6611 32.1098 36.6611C32.1098 36.6611 9.4965 31.8387 5.12217 29.32C0.751096 26.8012 -1.19922 22.0048 0.764164 18.6096C2.72755 15.2144 7.8696 14.5008 12.2439 17.0194Z" fill="#F4D742"/>
<path d="M5.12799 43.9993C9.50231 41.4806 32.1155 36.6582 32.1155 36.6582C32.1155 36.6582 16.6241 53.7812 12.2497 56.2999C7.87542 58.8187 2.73663 58.1051 0.769976 54.7097C-1.19668 51.3145 0.753641 46.5181 5.12799 43.9993Z" fill="#F4D742"/>
<path d="M24.9922 63.6378C24.9922 58.6002 32.114 36.6582 32.114 36.6582C32.114 36.6582 39.2357 58.6002 39.2357 63.6378C39.2357 68.6753 36.0473 72.7581 32.114 72.7581C28.1807 72.7581 24.9922 68.6753 24.9922 63.6378Z" fill="#F4D742"/>
<path d="M51.9724 56.2999C47.5981 53.7812 32.1064 36.6582 32.1064 36.6582C32.1064 36.6582 54.7199 41.4806 59.0942 43.9993C63.4685 46.5181 65.4189 51.3145 63.4522 54.7097C61.4856 58.1051 56.3467 58.8187 51.9724 56.2999Z" fill="#F4D742"/>
<path d="M59.0942 29.32C54.7199 31.8387 32.1064 36.6611 32.1064 36.6611C32.1064 36.6611 47.5981 19.5381 51.9724 17.0194C56.3467 14.5008 61.4856 15.2144 63.4522 18.6096C65.4189 22.0048 63.4685 26.8012 59.0942 29.32Z" fill="#F4D742"/>
</g>
<defs>
<clipPath id="clip0_21_77">
<rect width="65" height="73" fill="white"/>
</clipPath>
</defs>
</svg>
