<svg width="82" height="82" viewBox="0 0 82 82" fill="none" xmlns="http://www.w3.org/2000/svg">
<path d="M48.2299 14.1203C48.2299 19.1579 41.1081 41.0999 41.1081 41.0999C41.1081 41.0999 33.9863 19.1579 33.9863 14.1203C33.9863 9.0828 37.1748 5 41.1081 5C45.0416 5 48.2299 9.0828 48.2299 14.1203Z" fill="#FFD540"/>
<path d="M21.2439 21.4613C25.6183 23.98 41.1098 41.103 41.1098 41.103C41.1098 41.103 18.4965 36.2806 14.1222 33.7619C9.7511 31.2431 7.80078 26.4467 9.76416 23.0515C11.7275 19.6563 16.8696 18.9427 21.2439 21.4613Z" fill="#7525DA"/>
<path d="M14.128 48.4412C18.5023 45.9225 41.1155 41.1001 41.1155 41.1001C41.1155 41.1001 25.6241 58.2231 21.2497 60.7418C16.8754 63.2606 11.7366 62.547 9.76998 59.1516C7.80332 55.7564 9.75364 50.96 14.128 48.4412Z" fill="#CB4BEB"/>
<path d="M33.9922 68.0797C33.9922 63.0421 41.114 41.1001 41.114 41.1001C41.114 41.1001 48.2357 63.0421 48.2357 68.0797C48.2357 73.1172 45.0473 77.2 41.114 77.2C37.1807 77.2 33.9922 73.1172 33.9922 68.0797Z" fill="#F4295A"/>
<path d="M60.9734 60.7418C56.5991 58.2231 41.1074 41.1001 41.1074 41.1001C41.1074 41.1001 63.7208 45.9225 68.0951 48.4412C72.4694 50.96 74.4198 55.7564 72.4532 59.1516C70.4865 62.547 65.3477 63.2606 60.9734 60.7418Z" fill="#E83F28"/>
<path d="M68.0951 33.7619C63.7208 36.2806 41.1074 41.103 41.1074 41.103C41.1074 41.103 56.5991 23.98 60.9734 21.4613C65.3477 18.9427 70.4865 19.6563 72.4532 23.0515C74.4198 26.4467 72.4694 31.2431 68.0951 33.7619Z" fill="#FF7817"/>
</svg>
