<svg width="375" height="197" viewBox="0 0 375 197" fill="none" xmlns="http://www.w3.org/2000/svg">
<path d="M26.752 131.792H56.192V146H8.832V56.656H26.752V131.792ZM77.118 66.64C73.9607 66.64 71.3153 65.6587 69.182 63.696C67.134 61.648 66.11 59.1307 66.11 56.144C66.11 53.1573 67.134 50.6827 69.182 48.72C71.3153 46.672 73.9607 45.648 77.118 45.648C80.2753 45.648 82.878 46.672 84.926 48.72C87.0593 50.6827 88.126 53.1573 88.126 56.144C88.126 59.1307 87.0593 61.648 84.926 63.696C82.878 65.6587 80.2753 66.64 77.118 66.64ZM85.95 75.088V146H68.03V75.088H85.95ZM133.671 129.488L151.591 75.088H170.663L144.423 146H122.663L96.551 75.088H115.751L133.671 129.488ZM190.264 66.64C187.107 66.64 184.461 65.6587 182.328 63.696C180.28 61.648 179.256 59.1307 179.256 56.144C179.256 53.1573 180.28 50.6827 182.328 48.72C184.461 46.672 187.107 45.648 190.264 45.648C193.421 45.648 196.024 46.672 198.072 48.72C200.205 50.6827 201.272 53.1573 201.272 56.144C201.272 59.1307 200.205 61.648 198.072 63.696C196.024 65.6587 193.421 66.64 190.264 66.64ZM199.096 75.088V146H181.176V75.088H199.096ZM235.169 85.456C237.473 82.0427 240.63 79.2693 244.641 77.136C248.737 75.0027 253.388 73.936 258.593 73.936C264.652 73.936 270.113 75.4293 274.977 78.416C279.926 81.4027 283.809 85.6693 286.625 91.216C289.526 96.6773 290.977 103.035 290.977 110.288C290.977 117.541 289.526 123.984 286.625 129.616C283.809 135.163 279.926 139.472 274.977 142.544C270.113 145.616 264.652 147.152 258.593 147.152C253.302 147.152 248.652 146.128 244.641 144.08C240.716 141.947 237.558 139.216 235.169 135.888V146H217.249V51.28H235.169V85.456ZM272.673 110.288C272.673 106.021 271.777 102.352 269.985 99.28C268.278 96.1227 265.974 93.7333 263.073 92.112C260.257 90.4907 257.185 89.68 253.857 89.68C250.614 89.68 247.542 90.5333 244.641 92.24C241.825 93.8613 239.521 96.2507 237.729 99.408C236.022 102.565 235.169 106.277 235.169 110.544C235.169 114.811 236.022 118.523 237.729 121.68C239.521 124.837 241.825 127.269 244.641 128.976C247.542 130.597 250.614 131.408 253.857 131.408C257.185 131.408 260.257 130.555 263.073 128.848C265.974 127.141 268.278 124.709 269.985 121.552C271.777 118.395 272.673 114.64 272.673 110.288ZM370.367 109.008C370.367 111.568 370.196 113.872 369.855 115.92H318.015C318.442 121.04 320.234 125.051 323.391 127.952C326.548 130.853 330.431 132.304 335.039 132.304C341.695 132.304 346.431 129.445 349.247 123.728H368.575C366.527 130.555 362.602 136.187 356.799 140.624C350.996 144.976 343.871 147.152 335.423 147.152C328.596 147.152 322.452 145.659 316.991 142.672C311.615 139.6 307.391 135.291 304.319 129.744C301.332 124.197 299.839 117.797 299.839 110.544C299.839 103.205 301.332 96.7627 304.319 91.216C307.306 85.6693 311.487 81.4027 316.863 78.416C322.239 75.4293 328.426 73.936 335.423 73.936C342.164 73.936 348.18 75.3867 353.471 78.288C358.847 81.1893 362.986 85.328 365.887 90.704C368.874 95.9947 370.367 102.096 370.367 109.008ZM351.807 103.888C351.722 99.28 350.058 95.6107 346.815 92.88C343.572 90.064 339.604 88.656 334.911 88.656C330.474 88.656 326.719 90.0213 323.647 92.752C320.66 95.3973 318.826 99.1093 318.143 103.888H351.807Z" fill="white"/>
<mask id="path-2-inside-1_92_2" fill="white">
<path fill-rule="evenodd" clip-rule="evenodd" d="M232.444 39.9952C243.285 39.7588 252 30.8972 252 20C252 8.95431 243.046 0 232 0C220.954 0 212 8.95431 212 20H212V40H232H232.444V39.9952Z"/>
</mask>
<path d="M232.444 39.9952L232.314 33.9966L226.444 34.1245V39.9952H232.444ZM212 20V26H218V20H212ZM212 20V14H206V20H212ZM212 40H206V46H212V40ZM232.444 40V46H238.444V40H232.444ZM232.575 45.9937C246.67 45.6865 258 34.1671 258 20H246C246 27.6273 239.899 33.8312 232.314 33.9966L232.575 45.9937ZM258 20C258 5.64062 246.359 -6 232 -6V6C239.732 6 246 12.268 246 20H258ZM232 -6C217.641 -6 206 5.64062 206 20H218C218 12.268 224.268 6 232 6V-6ZM212 14H212V26H212V14ZM206 20V40H218V20H206ZM212 46H232V34H212V46ZM232 46H232.444V34H232V46ZM238.444 40V39.9952H226.444V40H238.444Z" fill="white" mask="url(#path-2-inside-1_92_2)"/>
<mask id="path-4-inside-2_92_2" fill="white">
<path fill-rule="evenodd" clip-rule="evenodd" d="M147.556 66.9952C136.715 66.7588 128 57.8972 128 47C128 35.9543 136.954 27 148 27C159.046 27 168 35.9543 168 47H168V67H148H147.556V66.9952Z"/>
</mask>
<path d="M147.556 66.9952L147.686 60.9966L153.556 61.1245V66.9952H147.556ZM168 47V53H162V47H168ZM168 47V41H174V47H168ZM168 67H174V73H168V67ZM147.556 67V73H141.556V67H147.556ZM147.425 72.9937C133.33 72.6865 122 61.1671 122 47H134C134 54.6273 140.101 60.8312 147.686 60.9966L147.425 72.9937ZM122 47C122 32.6406 133.641 21 148 21V33C140.268 33 134 39.268 134 47H122ZM148 21C162.359 21 174 32.6406 174 47H162C162 39.268 155.732 33 148 33V21ZM168 41H168V53H168V41ZM174 47V67H162V47H174ZM168 73H148V61H168V73ZM148 73H147.556V61H148V73ZM141.556 67V66.9952H153.556V67H141.556Z" fill="white" mask="url(#path-4-inside-2_92_2)"/>
</svg>
